<svg viewBox="0 0 1400 1000" xmlns="http://www.w3.org/2000/svg">
  <!-- Background -->
  <rect width="1400" height="1000" fill="#ffffff"/>
  
  <!-- Title -->
  <text x="50" y="50" font-family="Arial, sans-serif" font-size="32" font-weight="bold">React Router v7.5.3 라우팅 구조</text>
  
  <!-- main.tsx -->
  <g transform="translate(50, 100)">
    <rect x="0" y="0" width="300" height="200" rx="10" fill="#f0f0f0" stroke="#333" stroke-width="2"/>
    <rect x="10" y="10" width="280" height="30" fill="#1976d2"/>
    <text x="150" y="30" font-family="Arial, sans-serif" font-size="16" fill="white" text-anchor="middle" font-weight="bold">main.tsx</text>
    
    <text x="20" y="70" font-family="monospace" font-size="12">import { createRoot } from 'react-dom/client'</text>
    <text x="20" y="90" font-family="monospace" font-size="12">import { RouterProvider } from 'react-router'</text>
    <text x="20" y="110" font-family="monospace" font-size="12">import router from './router/root'</text>
    
    <text x="20" y="150" font-family="monospace" font-size="12">createRoot(document.getElementById('root')!)</text>
    <text x="20" y="170" font-family="monospace" font-size="12">.render(&lt;RouterProvider router={router} /&gt;)</text>
  </g>
  
  <!-- Arrow from main.tsx to root.tsx -->
  <line x1="350" y1="200" x2="450" y2="200" stroke="#666" stroke-width="2" marker-end="url(#arrowhead)"/>
  
  <!-- root.tsx -->
  <g transform="translate(450, 100)">
    <rect x="0" y="0" width="400" height="300" rx="10" fill="#f0f0f0" stroke="#333" stroke-width="2"/>
    <rect x="10" y="10" width="380" height="30" fill="#4caf50"/>
    <text x="200" y="30" font-family="Arial, sans-serif" font-size="16" fill="white" text-anchor="middle" font-weight="bold">root.tsx</text>
    
    <text x="20" y="70" font-family="monospace" font-size="12">import { createBrowserRouter } from "react-router"</text>
    <text x="20" y="90" font-family="monospace" font-size="12">import BasicLayout from "../layouts/basicLayout"</text>
    <text x="20" y="110" font-family="monospace" font-size="12">const Main = lazy(() => import("../pages/mainPage"))</text>
    <text x="20" y="130" font-family="monospace" font-size="12">const About = lazy(() => import("../pages/aboutPage"))</text>
    
    <text x="20" y="170" font-family="monospace" font-size="12">const router = createBrowserRouter([{</text>
    <text x="40" y="190" font-family="monospace" font-size="12">path: "",</text>
    <text x="40" y="210" font-family="monospace" font-size="12">Component: BasicLayout,</text>
    <text x="40" y="230" font-family="monospace" font-size="12">children: [</text>
    <text x="60" y="250" font-family="monospace" font-size="12">{ index: true, element: &lt;Suspense&gt;&lt;Main /&gt;&lt;/Suspense&gt; },</text>
    <text x="60" y="270" font-family="monospace" font-size="12">{ path: 'about', element: &lt;Suspense&gt;&lt;About /&gt;&lt;/Suspense&gt; }</text>
    <text x="40" y="290" font-family="monospace" font-size="12">]</text>
  </g>
  
  <!-- Arrow from root.tsx to BasicLayout -->
  <line x1="650" y1="400" x2="650" y2="480" stroke="#666" stroke-width="2" marker-end="url(#arrowhead)"/>
  
  <!-- BasicLayout -->
  <g transform="translate(450, 480)">
    <rect x="0" y="0" width="400" height="280" rx="10" fill="#f0f0f0" stroke="#333" stroke-width="2"/>
    <rect x="10" y="10" width="380" height="30" fill="#ff9800"/>
    <text x="200" y="30" font-family="Arial, sans-serif" font-size="16" fill="white" text-anchor="middle" font-weight="bold">basicLayout.tsx</text>
    
    <text x="20" y="70" font-family="monospace" font-size="12">import { Outlet } from "react-router"</text>
    
    <text x="20" y="110" font-family="monospace" font-size="12">function BasicLayout() {</text>
    <text x="40" y="130" font-family="monospace" font-size="12">return (</text>
    <text x="60" y="150" font-family="monospace" font-size="12">&lt;header className="bg-teal-400 p-5"&gt;</text>
    <text x="80" y="170" font-family="monospace" font-size="12">&lt;h1&gt;Header&lt;/h1&gt;</text>
    <text x="60" y="190" font-family="monospace" font-size="12">&lt;/header&gt;</text>
    <text x="60" y="210" font-family="monospace" font-size="12">&lt;main&gt;&lt;Outlet /&gt;&lt;/main&gt;</text>
    <text x="60" y="230" font-family="monospace" font-size="12">&lt;aside&gt;Sidebar&lt;/aside&gt;</text>
    <text x="40" y="250" font-family="monospace" font-size="12">)</text>
    <text x="20" y="270" font-family="monospace" font-size="12">}</text>
  </g>
  
  <!-- Arrows from BasicLayout to pages -->
  <line x1="450" y1="620" x2="300" y2="620" stroke="#666" stroke-width="2"/>
  <line x1="300" y1="620" x2="200" y2="720" stroke="#666" stroke-width="2" marker-end="url(#arrowhead)"/>
  
  <line x1="850" y1="620" x2="1000" y2="620" stroke="#666" stroke-width="2"/>
  <line x1="1000" y1="620" x2="1100" y2="720" stroke="#666" stroke-width="2" marker-end="url(#arrowhead)"/>
  
  <!-- MainPage -->
  <g transform="translate(50, 720)">
    <rect x="0" y="0" width="300" height="150" rx="10" fill="#f0f0f0" stroke="#333" stroke-width="2"/>
    <rect x="10" y="10" width="280" height="30" fill="#e91e63"/>
    <text x="150" y="30" font-family="Arial, sans-serif" font-size="16" fill="white" text-anchor="middle" font-weight="bold">mainPage.tsx</text>
    
    <text x="20" y="70" font-family="monospace" font-size="12">&lt;NavLink to='/about'&gt;About&lt;/NavLink&gt;</text>
    <text x="20" y="90" font-family="monospace" font-size="12">&lt;div&gt;Main Page&lt;/div&gt;</text>
    
    <rect x="10" y="110" width="80" height="30" fill="#2196f3" rx="5"/>
    <text x="50" y="130" font-family="Arial, sans-serif" font-size="14" fill="white" text-anchor="middle">path: /</text>
  </g>
  
  <!-- AboutPage -->
  <g transform="translate(950, 720)">
    <rect x="0" y="0" width="300" height="150" rx="10" fill="#f0f0f0" stroke="#333" stroke-width="2"/>
    <rect x="10" y="10" width="280" height="30" fill="#e91e63"/>
    <text x="150" y="30" font-family="Arial, sans-serif" font-size="16" fill="white" text-anchor="middle" font-weight="bold">aboutPage.tsx</text>
    
    <text x="20" y="70" font-family="monospace" font-size="12">&lt;NavLink to='/'&gt;Main&lt;/NavLink&gt;</text>
    <text x="20" y="90" font-family="monospace" font-size="12">&lt;div&gt;About Page&lt;/div&gt;</text>
    
    <rect x="10" y="110" width="100" height="30" fill="#2196f3" rx="5"/>
    <text x="60" y="130" font-family="Arial, sans-serif" font-size="14" fill="white" text-anchor="middle">path: /about</text>
  </g>
  
  <!-- Browser mockup -->
  <g transform="translate(900, 100)">
    <rect x="0" y="0" width="400" height="300" rx="10" fill="#ffffff" stroke="#333" stroke-width="2"/>
    <rect x="0" y="0" width="400" height="40" rx="10" fill="#f0f0f0"/>
    <circle cx="20" cy="20" r="6" fill="#ff5f56"/>
    <circle cx="40" cy="20" r="6" fill="#ffbd2e"/>
    <circle cx="60" cy="20" r="6" fill="#27c93f"/>
    
    <rect x="80" y="10" width="250" height="20" rx="5" fill="#ffffff" stroke="#ddd"/>
    <text x="90" y="25" font-family="Arial, sans-serif" font-size="12">localhost:3000</text>
    
    <!-- Header -->
    <rect x="0" y="40" width="400" height="60" fill="#80deea"/>
    <text x="20" y="75" font-family="Arial, sans-serif" font-size="24" font-weight="bold">Header</text>
    
    <!-- Main content -->
    <rect x="0" y="100" width="270" height="200" fill="#81d4fa"/>
    <text x="20" y="130" font-family="Arial, sans-serif" font-size="16">About | Main</text>
    <text x="20" y="200" font-family="Arial, sans-serif" font-size="24" font-weight="bold">Main Page</text>
    
    <!-- Sidebar -->
    <rect x="270" y="100" width="130" height="200" fill="#a5d6a7"/>
    <text x="290" y="200" font-family="Arial, sans-serif" font-size="18" font-weight="bold">Sidebar</text>
  </g>
  
  <!-- Key Features -->
  <g transform="translate(400, 900)">
    <rect x="0" y="0" width="600" height="90" rx="10" fill="#f5f5f5" stroke="#333" stroke-width="2"/>
    <rect x="10" y="10" width="580" height="30" fill="#673ab7"/>
    <text x="300" y="30" font-family="Arial, sans-serif" font-size="16" fill="white" text-anchor="middle" font-weight="bold">React Router v7 주요 특징</text>
    
    <text x="20" y="60" font-family="Arial, sans-serif" font-size="14" font-weight="bold">1. createBrowserRouter</text>
    <text x="210" y="60" font-family="Arial, sans-serif" font-size="14" font-weight="bold">2. Lazy Loading + Suspense</text>
    <text x="20" y="80" font-family="Arial, sans-serif" font-size="14" font-weight="bold">3. Layout 패턴 (Outlet)</text>
    <text x="210" y="80" font-family="Arial, sans-serif" font-size="14" font-weight="bold">4. NavLink 컴포넌트</text>
    <text x="410" y="60" font-family="Arial, sans-serif" font-size="14" font-weight="bold">5. 객체 기반 라우트 정의</text>
    <text x="410" y="80" font-family="Arial, sans-serif" font-size="14" font-weight="bold">6. 중첩 라우트 (children)</text>
  </g>
  
  <!-- Arrow marker definition -->
  <defs>
    <marker id="arrowhead" markerWidth="10" markerHeight="7" refX="9" refY="3.5" orient="auto">
      <polygon points="0 0, 10 3.5, 0 7" fill="#666"/>
    </marker>
  </defs>
</svg>